<svg width="28" height="28" viewBox="0 0 28 28" fill="none" xmlns="http://www.w3.org/2000/svg">
<rect width="28" height="28" rx="14" fill="#E9F9EB"/>
<path d="M7.24686 20.2892L7.24692 20.2891L8.28127 17.2462C7.46158 15.8627 7.12156 14.2468 7.31482 12.6494C7.50995 11.0367 8.23755 9.53517 9.38238 8.38264L9.38277 8.38225C10.7421 7.02896 12.5821 6.2692 14.5002 6.2692C16.4183 6.2692 18.2583 7.02896 19.6176 8.38225L19.6183 8.38291C20.8165 9.59839 21.5479 11.1974 21.6839 12.8987C21.8199 14.6001 21.3518 16.295 20.3618 17.6854C19.3719 19.0757 17.9235 20.0726 16.2712 20.5008C14.6297 20.9262 12.8914 20.7631 11.3581 20.0406L7.66646 20.77L7.65686 20.7719H7.64707L7.59421 20.7719L7.59395 20.7719M7.24686 20.2892L7.59395 20.6719V20.7719M7.24686 20.2892C7.22826 20.3443 7.22306 20.403 7.23169 20.4605C7.24032 20.518 7.26254 20.5726 7.2965 20.6198C7.33046 20.667 7.37518 20.7054 7.42696 20.7319C7.47866 20.7583 7.5359 20.772 7.59395 20.7719M7.24686 20.2892L7.59395 20.7719M11.4063 19.2836L11.3923 19.2835L11.3789 19.2872L11.3347 19.2995L8.1454 19.9343L9.03521 17.3124C9.03524 17.3123 9.03527 17.3122 9.0353 17.3122C9.05308 17.2604 9.05904 17.2054 9.05272 17.151C9.0464 17.0967 9.02795 17.0444 8.99874 16.9981C8.20966 15.7443 7.86809 14.2603 8.0296 12.7877C8.19111 11.3151 8.84614 9.94053 9.88813 8.88754C10.4937 8.28186 11.2127 7.80139 12.004 7.47358C12.7954 7.14573 13.6436 6.97699 14.5002 6.97699C15.3568 6.97699 16.205 7.14573 16.9964 7.47358C17.7877 7.80139 18.5067 8.28186 19.1123 8.88754C20.202 9.98514 20.8664 11.4342 20.987 12.9762C21.1075 14.5183 20.6763 16.053 19.7703 17.3066C18.8642 18.5602 17.5423 19.4512 16.0403 19.8205C14.5385 20.1899 12.9543 20.0137 11.5703 19.3235C11.5195 19.2976 11.4633 19.2839 11.4063 19.2836Z" fill="#3CC952" stroke="#3CC952" stroke-width="0.2"/>
<path d="M16.1494 17.3183L16.1494 17.3182C15.421 17.2386 14.6084 16.8414 13.9217 16.4099C13.2329 15.9772 12.6574 15.5014 12.4008 15.2502L12.4001 15.2495C12.1482 14.9976 11.6715 14.4217 11.2386 13.7318C10.8068 13.0438 10.4095 12.2284 10.3313 11.4999L10.4308 11.4892M16.1494 17.3183L12.8772 9.33235M16.1494 17.3183L16.1549 17.3186C16.2396 17.3232 16.3244 17.3232 16.4091 17.3187C16.7956 17.3048 17.1746 17.2084 17.5207 17.0358C17.8669 16.8632 18.1721 16.6184 18.4158 16.318M16.1494 17.3183L18.4158 16.318M10.4308 11.4892L10.3314 11.5C10.2036 10.3221 10.9892 9.52719 11.3248 9.24298C11.4912 9.10016 11.7058 9.0261 11.9248 9.03587L12.6414 9.05975L12.6418 9.05977C12.714 9.06244 12.7838 9.08644 12.8424 9.12874C12.9009 9.17099 12.9456 9.22962 12.9708 9.29724M10.4308 11.4892C10.5822 12.8997 11.9794 14.6874 12.4708 15.1788L11.9209 9.13579C11.727 9.127 11.537 9.19256 11.3897 9.31907C11.0603 9.59798 10.3086 10.363 10.4308 11.4892ZM12.9708 9.29724C12.9708 9.2973 12.9709 9.29736 12.9709 9.29742L12.8772 9.33235M12.9708 9.29724C12.9708 9.29717 12.9708 9.29711 12.9707 9.29705L12.8772 9.33235M12.9708 9.29724C13.0508 9.50911 13.2199 9.96728 13.3692 10.4186C13.4439 10.6442 13.5139 10.8692 13.5655 11.0613C13.6159 11.2495 13.6519 11.4177 13.6519 11.5238C13.6519 11.7142 13.5674 11.8771 13.4584 12.0153C13.3501 12.1526 13.2101 12.2747 13.0867 12.3824L13.0864 12.3827L13.0854 12.3836L13.0854 12.3835C13.0517 12.4122 13.0119 12.4472 12.9775 12.4793M12.8772 9.33235C13.0366 9.7547 13.5519 11.1599 13.5519 11.5238C13.5519 11.8425 13.2703 12.0895 13.0206 12.3074C12.9675 12.3525 12.8958 12.4163 12.8533 12.4614M12.9775 12.4793C12.9652 12.4574 12.9531 12.4355 12.941 12.4134L12.8533 12.4614M12.9775 12.4793C12.9579 12.4977 12.94 12.5151 12.9261 12.53L12.8533 12.4614M12.9775 12.4793C13.2339 12.9369 13.5374 13.3665 13.883 13.7612M12.8533 12.4614C13.1217 12.952 13.4433 13.4117 13.8122 13.832M13.8122 13.832L13.8781 13.7569C13.8798 13.7583 13.8814 13.7597 13.883 13.7612M13.8122 13.832C14.2326 14.2009 14.6922 14.5224 15.1828 14.7909M13.8122 13.832L13.8873 13.7661C13.8859 13.7644 13.8845 13.7628 13.883 13.7612M13.883 13.7612C14.2774 14.1065 14.7066 14.4098 15.1638 14.6661M15.1828 14.7909L15.1121 14.7202C15.1274 14.7049 15.1452 14.6862 15.1638 14.6661M15.1828 14.7909C15.2247 14.7491 15.2825 14.6844 15.3267 14.635C15.3302 14.6311 15.3336 14.6273 15.3369 14.6236M15.1828 14.7909L15.2308 14.7032C15.2084 14.691 15.186 14.6786 15.1638 14.6661M15.1638 14.6661C15.1934 14.6341 15.2251 14.5985 15.2526 14.5678C15.2558 14.5643 15.2589 14.5608 15.2619 14.5574M15.3369 14.6236L15.2615 14.5579L15.2619 14.5574M15.3369 14.6236C15.5547 14.3739 15.8017 14.0924 16.1337 14.0924C16.4977 14.0924 17.9028 14.6077 18.3252 14.767M15.3369 14.6236L15.2623 14.5569C15.2622 14.5571 15.2621 14.5572 15.2619 14.5574M15.2619 14.5574L15.262 14.5573C15.3696 14.434 15.4919 14.2938 15.631 14.1854C15.7717 14.076 15.9376 13.9924 16.1337 13.9924C16.2398 13.9924 16.408 14.0283 16.5962 14.0788C16.7883 14.1303 17.0133 14.2003 17.2389 14.275C17.6904 14.4244 18.1487 14.5936 18.3605 14.6735M18.3252 14.767L18.3601 14.6733C18.3602 14.6734 18.3603 14.6734 18.3605 14.6735M18.3252 14.767L18.3605 14.6735M18.3252 14.767L18.4158 16.318M18.3605 14.6735C18.428 14.6987 18.4865 14.7434 18.5288 14.8019C18.5711 14.8604 18.5951 14.9302 18.5977 15.0024L18.5978 15.0028L18.6217 15.72L18.6217 15.7205C18.6278 15.938 18.5546 16.1504 18.4158 16.318M13.0271 14.8284L12.9301 14.7291C12.7164 14.5101 12.2823 13.9864 11.8851 13.3617C11.4864 12.7345 11.1346 12.0203 11.0694 11.4174L11.0694 11.4172C10.9797 10.5999 11.5455 10.0195 11.8064 9.80016C11.8371 9.77572 11.8756 9.76301 11.9149 9.76433L12.3808 9.78063C12.6038 10.3453 12.7856 10.9254 12.9248 11.5163C12.9205 11.5237 12.9141 11.5332 12.9052 11.5448C12.8837 11.5729 12.8532 11.6062 12.8174 11.642C12.7582 11.7012 12.6914 11.7605 12.6407 11.8056C12.6301 11.815 12.6202 11.8237 12.6113 11.8317L12.6113 11.8317L12.6106 11.8323C12.6056 11.8369 12.6006 11.8414 12.5956 11.846C12.4996 11.9333 12.4062 12.0183 12.3371 12.106C12.2625 12.2008 12.2087 12.3078 12.2087 12.4375C12.2087 12.4967 12.2274 12.5646 12.2527 12.632C12.2789 12.7015 12.3157 12.7796 12.3593 12.8623C12.4466 13.0277 12.5649 13.2179 12.6903 13.4044C12.9397 13.7754 13.2257 14.144 13.3643 14.2826C13.5026 14.4209 13.8688 14.7087 14.2394 14.9603C14.4256 15.0867 14.6159 15.2061 14.7822 15.2942C14.8653 15.3383 14.9441 15.3754 15.0145 15.4018C15.0829 15.4274 15.1517 15.4461 15.212 15.4461C15.3448 15.4461 15.4537 15.3932 15.5495 15.3178C15.6426 15.2444 15.7299 15.1444 15.8187 15.0426C15.8236 15.0369 15.8289 15.0308 15.8345 15.0244C15.8804 14.9716 15.945 14.8973 16.0087 14.8333C16.0446 14.7973 16.0777 14.767 16.1051 14.7465C16.1157 14.7386 16.1241 14.733 16.1304 14.7294C16.7224 14.8687 17.3034 15.0507 17.8689 15.2741L17.8852 15.7399C17.8852 15.74 17.8852 15.74 17.8852 15.7401M13.0271 14.8284L17.8852 15.7401M13.0271 14.8284C13.2821 15.0604 13.7454 15.4285 14.284 15.7696C14.9136 16.1684 15.6305 16.5203 16.2295 16.5854C17.0495 16.6726 17.6298 16.1069 17.8495 15.8483M13.0271 14.8284L17.8495 15.8483M17.8852 15.7401C17.8865 15.7792 17.8738 15.8176 17.8495 15.8483M17.8852 15.7401L17.8495 15.8483" fill="#3CC952" stroke="#3CC952" stroke-width="0.2"/>
</svg>
